<?xml version="1.0" encoding="UTF-8"?>
<svg width="591px" height="101px" viewBox="0 0 591 101" version="1.1" xmlns="http://www.w3.org/2000/svg" xmlns:xlink="http://www.w3.org/1999/xlink">
    <!-- Generator: Sketch 63.1 (92452) - https://sketch.com -->
    <title>logo</title>
    <desc>Created with Sketch.</desc>
    <g id="Page-2" stroke="none" stroke-width="1" fill="none" fill-rule="evenodd">
        <g id="small" transform="translate(-207.000000, -960.000000)">
            <g id="dark" transform="translate(0.000000, 751.000000)">
                <g id="logo" transform="translate(207.000000, 199.000000)">
                    <g id="symbol" transform="translate(0.000000, 10.000000)">
                        <rect id="Rectangle" fill="#FFFFFF" x="57" y="49" width="12" height="52" rx="6"></rect>
                        <rect id="Rectangle" fill="#44D7B6" transform="translate(27.000000, 62.000000) rotate(-270.000000) translate(-27.000000, -62.000000) " x="21" y="36" width="12" height="52" rx="6"></rect>
                        <rect id="Rectangle" fill="#44D7B6" transform="translate(73.000000, 39.000000) rotate(-270.000000) translate(-73.000000, -39.000000) " x="67" y="13" width="12" height="52" rx="6"></rect>
                        <rect id="Rectangle" fill="#44D7B6" transform="translate(85.000000, 62.000000) rotate(-270.000000) translate(-85.000000, -62.000000) " x="79" y="51" width="12" height="22" rx="6"></rect>
                        <rect id="Rectangle" fill="#44D7B6" transform="translate(14.000000, 39.000000) rotate(-270.000000) translate(-14.000000, -39.000000) " x="8" y="25" width="12" height="28" rx="6"></rect>
                        <rect id="Rectangle" fill="#FFFFFF" x="57.3682523" y="0.892137348" width="12" height="28" rx="6"></rect>
                        <rect id="Rectangle" fill="#FFFFFF" x="32" y="72" width="12" height="28" rx="6"></rect>
                        <rect id="Rectangle" fill="#FFFFFF" x="32" y="0" width="12" height="52" rx="6"></rect>
                    </g>
                    <text id="UTxORPC" font-family="InterV_Bold, Inter V" font-size="99" font-weight="bold">
                        <tspan x="123" y="96" fill="#44D7B6">UTxO</tspan>
                        <tspan x="392.80271" y="96" fill="#FFFFFF">RPC</tspan>
                    </text>
                </g>
            </g>
        </g>
    </g>
</svg>